<svg width="68" height="68" viewBox="0 0 68 68" fill="none" xmlns="http://www.w3.org/2000/svg">
<path d="M54.349 46.4436L50.114 42.0675C51.9962 41.5499 53.5255 40.55 54.7019 39.0677C55.8783 37.5855 56.4665 35.8562 56.4665 33.8799C56.4665 31.5271 55.643 29.5272 53.996 27.8803C52.3491 26.2334 50.3493 25.4099 47.9965 25.4099H36.7032V19.7632H47.9965C51.9021 19.7632 55.2313 21.1396 57.984 23.8923C60.7367 26.6451 62.1131 29.9743 62.1131 33.8799C62.1131 36.562 61.419 39.0324 60.0309 41.2911C58.6428 43.5497 56.7488 45.2673 54.349 46.4436ZM44.7497 36.7032L39.103 31.0565H45.1732V36.7032H44.7497ZM55.9018 63.8071L3.95264 11.8579L7.90529 7.90527L59.8544 59.8544L55.9018 63.8071ZM31.0565 47.9965H19.7632C15.8577 47.9965 12.5285 46.6201 9.77574 43.8674C7.023 41.1146 5.64663 37.7854 5.64663 33.8799C5.64663 30.633 6.63479 27.7391 8.61112 25.1981C10.5874 22.6571 13.1284 20.9867 16.2341 20.1867L21.4572 25.4099H19.7632C17.4105 25.4099 15.4106 26.2334 13.7637 27.8803C12.1167 29.5272 11.2933 31.5271 11.2933 33.8799C11.2933 36.2326 12.1167 38.2325 13.7637 39.8794C15.4106 41.5264 17.4105 42.3498 19.7632 42.3498H31.0565V47.9965ZM22.5866 36.7032V31.0565H27.1745L32.7505 36.7032H22.5866Z" fill="#79747E"/>
</svg>
