<svg width="45" height="45" viewBox="0 0 45 45" fill="none" xmlns="http://www.w3.org/2000/svg">
<path fill-rule="evenodd" clip-rule="evenodd" d="M3.97263 18.039C6.17967 17.9426 8.04694 19.6537 8.1433 21.8607L8.20418 23.255L8.36355 24.4656L8.62783 25.6577L8.99499 26.8222L9.46225 27.9502L10.0261 29.0333L10.6821 30.0631L11.4254 31.0318L12.2503 31.932L13.1505 32.7569L14.1192 33.5002L15.149 34.1562L16.2321 34.72L17.3601 35.1873L18.5246 35.5545L19.7167 35.8187L20.9273 35.9781L22.1471 36.0314L23.367 35.9781L24.5775 35.8187L25.7696 35.5545L26.9341 35.1873L28.0621 34.72L29.1452 34.1562L30.3223 33.4064C32.1854 32.2194 34.6581 32.7676 35.845 34.6307C37.032 36.4939 36.4839 38.9665 34.6207 40.1535L33.149 41.091L31.4463 41.9774L29.6729 42.712L27.8421 43.2892L25.968 43.7047L24.0649 43.9553L22.1471 44.039L20.2293 43.9553L18.3262 43.7047L16.4521 43.2892L14.6214 42.712L12.8479 41.9774L11.1452 41.0911L9.52624 40.0597L8.00333 38.8911L6.58806 37.5942L5.29121 36.179L4.12264 34.6561L3.09125 33.0371L2.20488 31.3344L1.47029 29.5609L0.893057 27.7302L0.477583 25.8561L0.227027 23.9529L0.150913 22.2097C0.0545521 20.0026 1.76559 18.1354 3.97263 18.039Z" fill="#E8DEF8"/>
<path fill-rule="evenodd" clip-rule="evenodd" d="M5.65646 13.4138C4.02772 11.9213 3.91724 9.39105 5.40971 7.7623L6.58858 6.4758L8.00385 5.17894L9.52676 4.01037L11.1457 2.97898L12.8484 2.09262L14.6219 1.35802L16.4526 0.78079L18.3267 0.365317L20.2299 0.114761L22.1476 0.031031L24.0654 0.114764L25.9685 0.365317L27.8426 0.780791L29.6734 1.35802L31.4468 2.09262L33.1495 2.97898L34.7685 4.01038L36.2914 5.17894L37.7067 6.4758L39.0035 7.89107L40.1721 9.41398L41.2035 11.0329L42.0898 12.7356L42.8244 14.5091L43.4017 16.3398L43.8171 18.2139L44.0677 20.1171L44.1514 22.0348L44.0677 23.9526L43.8171 25.8558L43.4395 27.5593C42.9613 29.7161 40.8253 31.0769 38.6685 30.5988C36.5118 30.1206 35.151 27.9846 35.6291 25.8278L35.9312 24.4653L36.0906 23.2547L36.1438 22.0348L36.0906 20.815L35.9312 19.6044L35.6669 18.4123L35.2997 17.2479L34.8325 16.1198L34.2687 15.0367L33.6126 14.007L32.8693 13.0383L32.0444 12.138L31.1442 11.3131L30.1755 10.5698L29.1457 9.91378L28.0627 9.34999L26.9346 8.88272L25.7701 8.51556L24.578 8.25129L23.3675 8.09191L22.1476 8.03865L20.9278 8.09191L19.7172 8.25128L18.5251 8.51556L17.3606 8.88272L16.2326 9.34999L15.1495 9.91378L14.1197 10.5698L13.151 11.3131L12.2508 12.138L11.3079 13.167C9.81546 14.7958 7.28521 14.9062 5.65646 13.4138Z" fill="#6750A4"/>
</svg>
