<svg width="18" height="18" viewBox="0 0 18 18" fill="none" xmlns="http://www.w3.org/2000/svg">
<path d="M8.25 12.75H9.75V9.75H12.75V8.25H9.75V5.25H8.25V8.25H5.25V9.75H8.25V12.75ZM9 16.5C7.9625 16.5 6.9875 16.3063 6.075 15.9188C5.1625 15.5188 4.36875 14.9812 3.69375 14.3062C3.01875 13.6312 2.48125 12.8375 2.08125 11.925C1.69375 11.0125 1.5 10.0375 1.5 9C1.5 7.9625 1.69375 6.9875 2.08125 6.075C2.48125 5.1625 3.01875 4.36875 3.69375 3.69375C4.36875 3.01875 5.1625 2.4875 6.075 2.1C6.9875 1.7 7.9625 1.5 9 1.5C10.0375 1.5 11.0125 1.7 11.925 2.1C12.8375 2.4875 13.6313 3.01875 14.3063 3.69375C14.9813 4.36875 15.5125 5.1625 15.9 6.075C16.3 6.9875 16.5 7.9625 16.5 9C16.5 10.0375 16.3 11.0125 15.9 11.925C15.5125 12.8375 14.9813 13.6312 14.3063 14.3062C13.6313 14.9812 12.8375 15.5188 11.925 15.9188C11.0125 16.3063 10.0375 16.5 9 16.5ZM9 15C10.675 15 12.0938 14.4187 13.2563 13.2562C14.4188 12.0937 15 10.675 15 9C15 7.325 14.4188 5.90625 13.2563 4.74375C12.0938 3.58125 10.675 3 9 3C7.325 3 5.90625 3.58125 4.74375 4.74375C3.58125 5.90625 3 7.325 3 9C3 10.675 3.58125 12.0937 4.74375 13.2562C5.90625 14.4187 7.325 15 9 15Z" fill="#6750A4"/>
</svg>
