<svg width="53" height="32" viewBox="0 0 53 32" fill="none" xmlns="http://www.w3.org/2000/svg">
<g clip-path="url(#clip0_217_632)">
<path d="M0.392212 0.880005H13.2526C17.6561 0.880005 20.9368 1.52157 23.0948 2.80469C25.2527 4.05865 26.3317 6.3187 26.3317 9.58483C26.3317 13.2009 25.0194 15.6943 22.3949 17.0649C19.9453 18.3188 16.5187 18.9458 12.1153 18.9458H11.7654V30.6689H17.2332V31.5H0.392212V30.6689H3.2355V1.71112H0.392212V0.880005ZM11.7654 1.71112V18.1147H12.684C14.4337 18.1147 15.6439 17.5169 16.3146 16.3212C16.9853 15.1256 17.3207 13.1863 17.3207 10.5034V8.40378C17.3207 5.92501 16.9999 4.18988 16.3584 3.19838C15.746 2.20687 14.6086 1.71112 12.9464 1.71112H11.7654Z" fill="black"/>
<path d="M53 1.24255L36.431 31.5634H21.1985L37.8115 1.24255H53Z" fill="#6750A4"/>
</g>
<defs>
<clipPath id="clip0_217_632">
<rect width="53" height="32" fill="white"/>
</clipPath>
</defs>
</svg>
