<svg width="230" height="52" viewBox="0 0 230 52" fill="none" xmlns="http://www.w3.org/2000/svg">
<path d="M0.540039 0H21.708C28.956 0 34.356 1.056 37.908 3.168C41.46 5.232 43.236 8.952 43.236 14.328C43.236 20.28 41.076 24.384 36.756 26.64C32.724 28.704 27.084 29.736 19.836 29.736H19.26V49.032H28.26V50.4H0.540039V49.032H5.22004V1.368H0.540039V0ZM19.26 1.368V28.368H20.772C23.652 28.368 25.644 27.384 26.748 25.416C27.852 23.448 28.404 20.256 28.404 15.84V12.384C28.404 8.304 27.876 5.448 26.82 3.816C25.812 2.184 23.94 1.368 21.204 1.368H19.26Z" fill="black"/>
<path d="M66.8892 36.216V30.096C66.8892 25.44 66.6252 22.056 66.0972 19.944C65.6172 17.784 64.4652 16.704 62.6412 16.704C61.5852 16.704 60.7212 17.016 60.0492 17.64C59.4252 18.216 58.9692 19.2 58.6812 20.592C58.2492 22.752 58.0332 26.04 58.0332 30.456V36.072C58.0332 41.304 58.1772 44.448 58.4652 45.504C58.8012 46.56 59.1372 47.424 59.4732 48.096C60.0012 49.248 61.0332 49.824 62.5692 49.824C64.4412 49.824 65.6652 48.744 66.2412 46.584C66.6732 45.048 66.8892 41.592 66.8892 36.216ZM62.4252 51.12C56.4252 51.12 51.8892 49.584 48.8172 46.512C45.7452 43.44 44.2092 39.048 44.2092 33.336C44.2092 27.576 45.8412 23.16 49.1052 20.088C52.4172 16.968 57.0492 15.408 63.0012 15.408C68.9532 15.408 73.3932 16.848 76.3212 19.728C79.2492 22.56 80.7132 26.904 80.7132 32.76C80.7132 45 74.6172 51.12 62.4252 51.12Z" fill="black"/>
<path d="M84.3829 51.12V38.232H85.2469C86.4949 42.408 88.1749 45.336 90.2869 47.016C92.3989 48.696 95.0389 49.536 98.2069 49.536C103.103 49.536 105.551 47.976 105.551 44.856C105.551 43.512 104.951 42.504 103.751 41.832C101.879 40.776 99.4789 39.96 96.5509 39.384C93.2869 38.52 90.5509 37.368 88.3429 35.928C85.7029 34.2 84.3829 31.464 84.3829 27.72C84.3829 23.976 85.5349 21 87.8389 18.792C90.1429 16.536 93.2149 15.408 97.0549 15.408C99.4069 15.408 101.831 15.96 104.327 17.064C105.239 17.448 105.935 17.64 106.415 17.64C106.895 17.64 107.303 17.472 107.639 17.136C107.975 16.8 108.383 16.176 108.863 15.264H109.655V26.28H108.791C106.343 20.04 102.551 16.92 97.4149 16.92C95.1589 16.92 93.4789 17.328 92.3749 18.144C91.2709 18.912 90.7189 19.896 90.7189 21.096C90.7189 21.816 90.8869 22.392 91.2229 22.824C91.5589 23.208 91.8229 23.496 92.0149 23.688C92.2069 23.88 92.5189 24.096 92.9509 24.336C93.3829 24.528 93.7429 24.696 94.0309 24.84C94.3189 24.936 94.7509 25.08 95.3269 25.272C95.9509 25.464 96.4069 25.584 96.6949 25.632C99.9589 26.448 102.311 27.168 103.751 27.792C105.191 28.368 106.559 29.088 107.855 29.952C110.495 31.776 111.815 34.728 111.815 38.808C111.815 42.84 110.615 45.912 108.215 48.024C105.815 50.088 102.527 51.12 98.3509 51.12C95.3749 51.12 92.4949 50.424 89.7109 49.032C89.1349 48.648 88.6789 48.456 88.3429 48.456C87.2869 48.456 86.2549 49.344 85.2469 51.12H84.3829Z" fill="black"/>
<path d="M116.843 40.104V17.424H112.883V16.128H116.843V6.84L130.235 3.528V16.128H139.595V17.424H130.235V41.688C130.235 43.944 130.451 45.6 130.883 46.656C131.363 47.712 132.323 48.24 133.763 48.24C135.203 48.24 136.451 47.52 137.507 46.08C138.611 44.64 139.331 42.672 139.667 40.176L140.891 40.32C140.507 43.632 139.451 46.272 137.723 48.24C135.995 50.16 133.139 51.12 129.155 51.12C125.171 51.12 122.123 50.328 120.011 48.744C117.899 47.16 116.843 44.28 116.843 40.104Z" fill="black"/>
<path d="M165.626 18.144C163.85 18.144 162.29 19.296 160.946 21.6C159.602 23.904 158.93 26.64 158.93 29.808V49.104H164.042V50.4H141.578V49.104H145.538V17.424H141.578V16.128H158.93V23.04C159.554 20.592 160.754 18.72 162.53 17.424C164.306 16.08 166.322 15.408 168.578 15.408C170.834 15.408 172.658 16.056 174.05 17.352C175.49 18.6 176.21 20.4 176.21 22.752C176.21 25.056 175.682 26.832 174.626 28.08C173.57 29.328 171.938 29.952 169.73 29.952C167.57 29.952 165.962 29.232 164.906 27.792C163.898 26.352 163.778 24.36 164.546 21.816H167.138C168.338 19.368 167.834 18.144 165.626 18.144Z" fill="black"/>
<path d="M229.46 0.400024L202.367 50.4H177.46L204.625 0.400024H229.46Z" fill="#6750A4"/>
</svg>
